{
  "source": "C:\\Users\\Peter\\Desktop\\stuff\\MIUN\\quantitative_research\\video_compression\\videos\\BVI-HD\\BVI-HD_CDVL_videos\\ORIG\\BridgeRiver_1920x1080_30fps.mp4",
  "output": "C:\\Users\\Peter\\Desktop\\stuff\\MIUN\\quantitative_research\\video_compression\\compressed_videos\\BVI-HD\\h264\\3\\BridgeRiver_1920x1080_30fps_h264.mp4",
  "codec": "h264",
  "ok": "Input #0, mov,mp4,m4a,3gp,3g2,mj2, from 'C:\\Users\\Peter\\Desktop\\stuff\\MIUN\\quantitative_research\\video_compression\\videos\\BVI-HD\\BVI-HD_CDVL_videos\\ORIG\\BridgeRiver_1920x1080_30fps.mp4':\n  Metadata:\n    major_brand     : isom\n    minor_version   : 512\n    compatible_brands: isomiso2avc1mp41\n    encoder         : Lavf54.28.101\n  Duration: 00:00:05.00, start: 0.000000, bitrate: 274913 kb/s\n  Stream #0:0[0x1](und): Video: h264 (High 4:4:4 Predictive) (avc1 / 0x31637661), yuv420p(progressive), 1920x1080, 274910 kb/s, 30 fps, 30 tbr, 30 tbn (default)\n    Metadata:\n      handler_name    : VideoHandler\n      vendor_id       : [0][0][0][0]\n[out#0/mp4 @ 000001f8f7a09a40] Codec AVOption b:a (set bitrate (in bits/s)) has not been used for any stream. The most likely reason is either wrong type (e.g. a video option with no video streams) or that it is a private option of some decoder which was not actually used for any stream.\nStream mapping:\n  Stream #0:0 -> #0:0 (h264 (native) -> h264 (libx264))\nPress [q] to stop, [?] for help\n[libx264 @ 000001f8f9d075c0] using cpu capabilities: MMX2 SSE2Fast SSSE3 SSE4.2 AVX FMA3 BMI2 AVX2\n[libx264 @ 000001f8f9d075c0] profile High, level 5.0, 4:2:0, 8-bit\n[libx264 @ 000001f8f9d075c0] 264 - core 165 r3222 b35605a - H.264/MPEG-4 AVC codec - Copyleft 2003-2025 - http://www.videolan.org/x264.html - options: cabac=1 ref=5 deblock=1:0:0 analyse=0x3:0x113 me=hex subme=8 psy=1 psy_rd=1.00:0.00 mixed_ref=1 me_range=16 chroma_me=1 trellis=2 8x8dct=1 cqm=0 deadzone=21,11 fast_pskip=1 chroma_qp_offset=-2 threads=18 lookahead_threads=3 sliced_threads=0 nr=0 decimate=1 interlaced=0 bluray_compat=0 constrained_intra=0 bframes=3 b_pyramid=2 b_adapt=1 b_bias=0 direct=3 weightb=1 open_gop=0 weightp=2 keyint=250 keyint_min=25 scenecut=40 intra_refresh=0 rc_lookahead=50 rc=cbr mbtree=1 bitrate=3000 ratetol=1.0 qcomp=0.60 qpmin=0 qpmax=69 qpstep=4 vbv_maxrate=3000 vbv_bufsize=3000 nal_hrd=none filler=0 ip_ratio=1.40 aq=1:1.00\nOutput #0, mp4, to 'C:\\Users\\Peter\\Desktop\\stuff\\MIUN\\quantitative_research\\video_compression\\compressed_videos\\BVI-HD\\h264\\3\\BridgeRiver_1920x1080_30fps_h264.mp4':\n  Metadata:\n    major_brand     : isom\n    minor_version   : 512\n    compatible_brands: isomiso2avc1mp41\n    encoder         : Lavf62.3.100\n  Stream #0:0(und): Video: h264 (avc1 / 0x31637661), yuv420p(tv, progressive), 1920x1080, q=2-31, 3000 kb/s, 30 fps, 15360 tbn (default)\n    Metadata:\n      encoder         : Lavc62.11.100 libx264\n      handler_name    : VideoHandler\n      vendor_id       : [0][0][0][0]\n    Side data:\n      cpb: bitrate max/min/avg: 3000000/0/3000000 buffer size: 3000000 vbv_delay: N/A\nframe=    0 fps=0.0 q=0.0 size=       0KiB time=N/A bitrate=N/A speed=N/A elapsed=0:00:01.08    \nframe=    0 fps=0.0 q=0.0 size=       0KiB time=N/A bitrate=N/A speed=N/A elapsed=0:00:01.63    \nframe=    0 fps=0.0 q=0.0 size=       0KiB time=N/A bitrate=N/A speed=N/A elapsed=0:00:02.21    \nframe=    9 fps=3.2 q=40.0 size=       0KiB time=00:00:00.13 bitrate=   2.9kbits/s speed=0.0475x elapsed=0:00:02.80    \nframe=   29 fps=8.5 q=40.0 size=       0KiB time=00:00:00.63 bitrate=   0.6kbits/s speed=0.186x elapsed=0:00:03.40    \nframe=   49 fps= 12 q=40.0 size=     256KiB time=00:00:01.30 bitrate=1613.5kbits/s speed=0.316x elapsed=0:00:04.11    \nframe=   69 fps= 14 q=40.0 size=     512KiB time=00:00:02.23 bitrate=1878.2kbits/s speed=0.468x elapsed=0:00:04.77    \nframe=  101 fps= 19 q=41.0 size=    1024KiB time=00:00:03.30 bitrate=2542.1kbits/s speed=0.62x elapsed=0:00:05.32    \nframe=  139 fps= 24 q=-1.0 size=    1536KiB time=00:00:04.46 bitrate=2817.2kbits/s speed=0.758x elapsed=0:00:05.88    \n[mp4 @ 000001f8f7a114c0] Starting second pass: moving the moov atom to the beginning of the file\n[out#0/mp4 @ 000001f8f7a09a40] video:1794KiB audio:0KiB subtitle:0KiB other streams:0KiB global headers:0KiB muxing overhead: 0.145592%\nframe=  150 fps= 24 q=-1.0 Lsize=    1797KiB time=00:00:04.93 bitrate=2983.8kbits/s speed=0.803x elapsed=0:00:06.14    \n[libx264 @ 000001f8f9d075c0] frame I:1     Avg QP:38.76  size: 54409\n[libx264 @ 000001f8f9d075c0] frame P:38    Avg QP:40.21  size: 19555\n[libx264 @ 000001f8f9d075c0] frame B:111   Avg QP:43.32  size:  9361\n[libx264 @ 000001f8f9d075c0] consecutive B-frames:  1.3%  0.0%  0.0% 98.7%\n[libx264 @ 000001f8f9d075c0] mb I  I16..4: 27.7% 65.1%  7.2%\n[libx264 @ 000001f8f9d075c0] mb P  I16..4:  0.7%  5.5%  0.2%  P16..4: 20.6%  6.8%  3.8%  0.0%  0.0%    skip:62.3%\n[libx264 @ 000001f8f9d075c0] mb B  I16..4:  0.0%  0.6%  0.0%  B16..8: 18.5%  3.4%  0.6%  direct: 3.0%  skip:73.8%  L0:43.1% L1:50.8% BI: 6.1%\n[libx264 @ 000001f8f9d075c0] 8x8 transform intra:82.5% inter:73.5%\n[libx264 @ 000001f8f9d075c0] direct mvs  spatial:91.0% temporal:9.0%\n[libx264 @ 000001f8f9d075c0] coded y,uvDC,uvAC intra: 55.2% 11.4% 1.1% inter: 9.9% 0.4% 0.0%\n[libx264 @ 000001f8f9d075c0] i16 v,h,dc,p: 20% 45%  8% 27%\n[libx264 @ 000001f8f9d075c0] i8 v,h,dc,ddl,ddr,vr,hd,vl,hu:  4%  7%  9%  7% 18%  9% 24%  6% 15%\n[libx264 @ 000001f8f9d075c0] i4 v,h,dc,ddl,ddr,vr,hd,vl,hu:  3%  8%  6%  8% 15%  9% 20%  8% 24%\n[libx264 @ 000001f8f9d075c0] i8c dc,h,v,p: 93%  6%  1%  0%\n[libx264 @ 000001f8f9d075c0] Weighted P-Frames: Y:0.0% UV:0.0%\n[libx264 @ 000001f8f9d075c0] ref P L0: 51.1%  5.6% 21.5% 10.5% 11.3%\n[libx264 @ 000001f8f9d075c0] ref B L0: 79.5% 11.8%  6.0%  2.7%\n[libx264 @ 000001f8f9d075c0] ref B L1: 96.3%  3.7%\n[libx264 @ 000001f8f9d075c0] kb/s:2938.50\n",
  "seconds": 6.574632406234741,
  "probe_out": {}
}